Coordinates
version=1
nRows=24
nColumns=22
inDegrees=yes

Units are S.I. units (second, meters, Newtons, ...)
If the header above contains a line with 'inDegrees', this indicates whether rotational values are in degrees (yes) or radians (no).

endheader
time	pelvis_tilt	pelvis_list	pelvis_rotation	pelvis_tx	pelvis_ty	pelvis_tz	hip_flexion_r	hip_adduction_r	hip_rotation_r	knee_angle_r	ankle_angle_r	subtalar_angle_r	hip_flexion_l	hip_adduction_l	hip_rotation_l	knee_angle_l	ankle_angle_l	subtalar_angle_l	lumbar_extension	lumbar_bending	lumbar_rotation
      0.01000000	      1.54301011	     -0.30950075	      3.25265800	      0.16531709	      1.08710647	      1.21089126	     -5.17670724	      2.00995687	     -4.96207042	     -7.47770399	     12.46344328	     -1.43572933	     -4.05026558	      0.33495798	      3.51488509	     -9.39839171	     11.98590143	     -3.52819553	     -2.40829984	     -1.06260840	     -4.67560269
      0.02000000	      1.54471226	     -0.31246294	      3.26000405	      0.16533675	      1.08710634	      1.21077813	     -5.17725015	      2.00847619	     -4.95748947	     -7.48421794	     12.46305340	     -1.43576217	     -4.05355428	      0.33711334	      3.51439899	     -9.39726705	     11.98627927	     -3.52922535	     -2.40459961	     -1.06227278	     -4.67645116
      0.03000000	      1.54982008	     -0.31447773	      3.26559491	      0.16533246	      1.08710949	      1.21066301	     -5.17090563	      2.00515513	     -4.93032806	     -7.51072750	     12.46498885	     -1.43614955	     -4.06471723	      0.34023203	      3.52191255	     -9.38495830	     11.98980916	     -3.53543241	     -2.41067863	     -1.06534499	     -4.69788650
      0.04000000	      1.55867236	     -0.31479283	      3.27164154	      0.16534898	      1.08711661	      1.21051912	     -5.17190412	      1.99895688	     -4.90029691	     -7.53301444	     12.47308852	     -1.43715896	     -4.07988185	      0.34716110	      3.53319587	     -9.37666134	     11.99224518	     -3.54309699	     -2.41680275	     -1.06727097	     -4.71480722
      0.05000000	      1.58992167	     -0.30592065	      3.27356436	      0.16539002	      1.08715214	      1.21037088	     -5.20642022	      1.98417534	     -4.85980717	     -7.54130809	     12.50463996	     -1.44251677	     -4.12842910	      0.36378120	      3.55399216	     -9.35497959	     11.98748469	     -3.57384378	     -2.44654725	     -1.07995417	     -4.72032062
      0.06000000	      1.60112881	     -0.30854163	      3.27826203	      0.16539959	      1.08716559	      1.21022758	     -5.20515299	      1.98020419	     -4.83782299	     -7.56981820	     12.49795330	     -1.44309816	     -4.14278070	      0.36767793	      3.55334390	     -9.35086990	     11.98778281	     -3.57832008	     -2.45679449	     -1.08098970	     -4.74448796
      0.07000000	      1.61350646	     -0.31069709	      3.27841898	      0.16539888	      1.08717891	      1.21009323	     -5.20636902	      1.97584064	     -4.81325005	     -7.59412094	     12.50076724	     -1.44402183	     -4.15828373	      0.37257219	      3.55741801	     -9.34754940	     11.98917195	     -3.58369896	     -2.46974022	     -1.08230271	     -4.76501242
      0.08000000	      1.64765784	     -0.30713163	      3.26793230	      0.16539869	      1.08721709	      1.20997676	     -5.23477390	      1.96624007	     -4.78232657	     -7.61094143	     12.52928012	     -1.44946665	     -4.20426539	      0.38299061	      3.55769709	     -9.33295888	     11.98650285	     -3.60921296	     -2.50887162	     -1.08966645	     -4.76600382
      0.09000000	      1.65434940	     -0.31123975	      3.25842578	      0.16538007	      1.08722595	      1.20987863	     -5.22859892	      1.96384229	     -4.77223664	     -7.63113054	     12.51951672	     -1.45026227	     -4.21359327	      0.38515427	      3.55358338	     -9.32858804	     11.98551175	     -3.61284761	     -2.51611743	     -1.09160870	     -4.78610558
      0.10000000	      1.65811636	     -0.31679569	      3.24868990	      0.16536532	      1.08722801	      1.20980176	     -5.22527167	      1.96498033	     -4.76891552	     -7.63943027	     12.51848924	     -1.45079353	     -4.21774246	      0.38493462	      3.55334021	     -9.32926968	     11.98499113	     -3.61420807	     -2.51728378	     -1.09742380	     -4.79413555
      0.11000000	      1.66519399	     -0.32112002	      3.23489497	      0.16531031	      1.08723632	      1.20970733	     -5.20871239	      1.96134603	     -4.75247202	     -7.67699772	     12.51690773	     -1.45384417	     -4.22766276	      0.38725265	      3.54418763	     -9.32040028	     11.98375518	     -3.61961064	     -2.52945663	     -1.09535956	     -4.81520717
      0.12000000	      1.66963166	     -0.32683956	      3.21339013	      0.16526394	      1.08723924	      1.20964855	     -5.19101192	      1.96051594	     -4.74274485	     -7.71002405	     12.52266250	     -1.45928200	     -4.23501516	      0.38748125	      3.52987870	     -9.31356080	     11.98019090	     -3.62763182	     -2.53525815	     -1.09803213	     -4.82093665
      0.13000000	      1.66252263	     -0.33154349	      3.17619758	      0.16521671	      1.08722186	      1.20961927	     -5.15684915	      1.95627954	     -4.72488644	     -7.74977431	     12.54430681	     -1.47633971	     -4.22841978	      0.38968387	      3.49128102	     -9.31111839	     11.97212158	     -3.65101591	     -2.52552461	     -1.10560477	     -4.79252212
      0.14000000	      1.66257870	     -0.33726585	      3.15884847	      0.16516502	      1.08721880	      1.20956295	     -5.13960925	      1.95569205	     -4.71478374	     -7.77303189	     12.54018247	     -1.47962921	     -4.22945752	      0.38953292	      3.48531069	     -9.30634125	     11.97431922	     -3.65475001	     -2.52499001	     -1.10894996	     -4.80730643
      0.15000000	      1.64108015	     -0.34901189	      3.12056540	      0.16509853	      1.08717906	      1.20955295	     -5.08316829	      1.95845231	     -4.69704073	     -7.82369163	     12.55977888	     -1.49439599	     -4.20288069	      0.38434381	      3.44815919	     -9.30956280	     11.97886566	     -3.66920206	     -2.49936581	     -1.11163247	     -4.77444142
      0.16000000	      1.64044336	     -0.35518448	      3.10085711	      0.16504522	      1.08717194	      1.20950095	     -5.06525153	      1.95737599	     -4.68467638	     -7.84767777	     12.55588785	     -1.49595069	     -4.20101079	      0.38431165	      3.44563257	     -9.30954286	     11.98322664	     -3.67101475	     -2.49728275	     -1.11245311	     -4.79072448
      0.17000000	      1.63520912	     -0.36814550	      3.07457907	      0.16497387	      1.08715503	      1.20948215	     -5.02944946	      1.96320416	     -4.66841728	     -7.89314321	     12.56123046	     -1.49778466	     -4.19289209	      0.37564776	      3.43590965	     -9.31096276	     11.99282138	     -3.67428407	     -2.49247237	     -1.11071061	     -4.78726374
      0.18000000	      1.59571643	     -0.38934687	      3.02973933	      0.16491122	      1.08708331	      1.20949744	     -4.95594220	      1.97488390	     -4.63513352	     -7.93832879	     12.58908152	     -1.49575792	     -4.13927503	      0.36023527	      3.38691747	     -9.33125920	     12.01694869	     -3.68239271	     -2.44275573	     -1.10266245	     -4.74590782
      0.19000000	      1.59645117	     -0.39766808	      3.01111010	      0.16484204	      1.08707770	      1.20947608	     -4.93305234	      1.97752114	     -4.61869949	     -7.97242118	     12.58358199	     -1.49435167	     -4.13591403	      0.35532923	      3.38902724	     -9.33499958	     12.02041194	     -3.68239914	     -2.44621619	     -1.10416129	     -4.76303171
      0.20000000	      1.57046955	     -0.42313253	      2.96826188	      0.16476885	      1.08702416	      1.20950065	     -4.86602992	      1.99461448	     -4.59185097	     -8.03122227	     12.60922142	     -1.48317046	     -4.09820671	      0.33364987	      3.35461545	     -9.35191593	     12.04494199	     -3.68274847	     -2.41597487	     -1.08811246	     -4.73414251
      0.21000000	      1.57276271	     -0.43118143	      2.94714486	      0.16469583	      1.08701956	      1.20950336	     -4.83919560	      1.99755478	     -4.56936781	     -8.07548334	     12.60425693	     -1.48024601	     -4.09528290	      0.32706497	      3.35418224	     -9.35840133	     12.04944840	     -3.68176090	     -2.42388163	     -1.09050941	     -4.75410627
      0.22000000	      1.54679900	     -0.45688969	      2.89328100	      0.16461486	      1.08696184	      1.20956136	     -4.75908103	      2.01415641	     -4.53488311	     -8.15727398	     12.64236410	     -1.46415017	     -4.05615114	      0.30377631	      3.30605961	     -9.37945666	     12.07815035	     -3.67527731	     -2.39778563	     -1.07365091	     -4.71808205
      0.23000000	      1.55052946	     -0.46429359	      2.86882002	      0.16453076	      1.08695732	      1.20958800	     -4.72306143	      2.01701459	     -4.50430328	     -8.21992157	     12.63642960	     -1.46097556	     -4.05409909	      0.29653326	      3.30610268	     -9.38666616	     12.08303890	     -3.67242318	     -2.41280738	     -1.07630131	     -4.74542298
      0.24000000	      1.53087173	     -0.48692820	      2.81122488	      0.16443631	      1.08690213	      1.20967631	     -4.63104688	      2.03107445	     -4.46978820	     -8.33480753	     12.68964748	     -1.44978900	     -4.02253899	      0.27435252	      3.25823362	     -9.40565772	     12.11002955	     -3.65925573	     -2.40147542	     -1.06421519	     -4.70965480
